<?xml version="1.0" encoding="iso-8859-1"?>
<!-- Uploaded to: SVG Repo, www.svgrepo.com, Generator: SVG Repo Mixer Tools -->
<!DOCTYPE svg PUBLIC "-//W3C//DTD SVG 1.1//EN" "http://www.w3.org/Graphics/SVG/1.1/DTD/svg11.dtd">
<svg fill="#ED4D5E" version="1.1" id="Capa_1" xmlns="http://www.w3.org/2000/svg" xmlns:xlink="http://www.w3.org/1999/xlink" 
	 width="21px" height="21px" viewBox="0 0 96.294 96.294"
	 xml:space="preserve">
<g>
	<path d="M64.755,14.763c11.324,0,20.537,9.214,20.537,20.538c0,11.024-18.056,30.068-37.148,44.51
		C29.066,65.389,11,46.337,11,35.301c0-11.324,9.213-20.538,20.537-20.538c3.836,0,7.572,1.062,10.806,3.07l5.803,3.605l5.804-3.604
		C57.184,15.825,60.919,14.763,64.755,14.763 M64.755,3.763c-5.909,0-11.625,1.63-16.609,4.726
		c-4.984-3.096-10.699-4.726-16.609-4.726C14.147,3.763,0,17.91,0,35.301c0,22.539,38.227,51.024,45.892,56.507
		c0.663,0.473,1.442,0.723,2.255,0.723c0.816,0,1.599-0.252,2.257-0.727c7.664-5.483,45.89-33.981,45.89-56.503
		C96.292,17.911,82.145,3.763,64.755,3.763L64.755,3.763z"/>
</g>
</svg>